<?xml version="1.0" encoding="utf-8" standalone="no"?>
<!DOCTYPE svg PUBLIC "-//W3C//DTD SVG 1.1//EN"
  "http://www.w3.org/Graphics/SVG/1.1/DTD/svg11.dtd">
<!-- Created with matplotlib (https://matplotlib.org/) -->
<svg height="389.905625pt" version="1.1" viewBox="0 0 498.074375 389.905625" width="498.074375pt" xmlns="http://www.w3.org/2000/svg" xmlns:xlink="http://www.w3.org/1999/xlink">
 <defs>
  <style type="text/css">
*{stroke-linecap:butt;stroke-linejoin:round;}
  </style>
 </defs>
 <g id="figure_1">
  <g id="patch_1">
   <path d="M 0 389.905625 
L 498.074375 389.905625 
L 498.074375 0 
L 0 0 
z
" style="fill:#ffffff;"/>
  </g>
  <g id="axes_1">
   <g id="patch_2">
    <path d="M 44.474375 348.478125 
L 490.874375 348.478125 
L 490.874375 22.318125 
L 44.474375 22.318125 
z
" style="fill:#ffffff;"/>
   </g>
   <g id="patch_3">
    <path clip-path="url(#p6f522c762e)" d="M 64.765284 348.478125 
L 77.856193 348.478125 
L 77.856193 344.103075 
L 64.765284 344.103075 
z
" style="fill:#1f77b4;opacity:0.3;"/>
   </g>
   <g id="patch_4">
    <path clip-path="url(#p6f522c762e)" d="M 77.856193 348.478125 
L 90.947102 348.478125 
L 90.947102 344.103075 
L 77.856193 344.103075 
z
" style="fill:#1f77b4;opacity:0.3;"/>
   </g>
   <g id="patch_5">
    <path clip-path="url(#p6f522c762e)" d="M 90.947102 348.478125 
L 104.038011 348.478125 
L 104.038011 330.977924 
L 90.947102 330.977924 
z
" style="fill:#1f77b4;opacity:0.3;"/>
   </g>
   <g id="patch_6">
    <path clip-path="url(#p6f522c762e)" d="M 104.038011 348.478125 
L 117.12892 348.478125 
L 117.12892 300.352572 
L 104.038011 300.352572 
z
" style="fill:#1f77b4;opacity:0.3;"/>
   </g>
   <g id="patch_7">
    <path clip-path="url(#p6f522c762e)" d="M 117.12892 348.478125 
L 130.21983 348.478125 
L 130.21983 309.102672 
L 117.12892 309.102672 
z
" style="fill:#1f77b4;opacity:0.3;"/>
   </g>
   <g id="patch_8">
    <path clip-path="url(#p6f522c762e)" d="M 130.21983 348.478125 
L 143.310739 348.478125 
L 143.310739 260.977119 
L 130.21983 260.977119 
z
" style="fill:#1f77b4;opacity:0.3;"/>
   </g>
   <g id="patch_9">
    <path clip-path="url(#p6f522c762e)" d="M 143.310739 348.478125 
L 156.401648 348.478125 
L 156.401648 304.727622 
L 143.310739 304.727622 
z
" style="fill:#1f77b4;opacity:0.3;"/>
   </g>
   <g id="patch_10">
    <path clip-path="url(#p6f522c762e)" d="M 156.401648 348.478125 
L 169.492557 348.478125 
L 169.492557 252.227018 
L 156.401648 252.227018 
z
" style="fill:#1f77b4;opacity:0.3;"/>
   </g>
   <g id="patch_11">
    <path clip-path="url(#p6f522c762e)" d="M 169.492557 348.478125 
L 182.583466 348.478125 
L 182.583466 269.72722 
L 169.492557 269.72722 
z
" style="fill:#1f77b4;opacity:0.3;"/>
   </g>
   <g id="patch_12">
    <path clip-path="url(#p6f522c762e)" d="M 182.583466 348.478125 
L 195.674375 348.478125 
L 195.674375 186.601264 
L 182.583466 186.601264 
z
" style="fill:#1f77b4;opacity:0.3;"/>
   </g>
   <g id="patch_13">
    <path clip-path="url(#p6f522c762e)" d="M 195.674375 348.478125 
L 208.765284 348.478125 
L 208.765284 182.226214 
L 195.674375 182.226214 
z
" style="fill:#1f77b4;opacity:0.3;"/>
   </g>
   <g id="patch_14">
    <path clip-path="url(#p6f522c762e)" d="M 208.765284 348.478125 
L 221.856193 348.478125 
L 221.856193 151.600861 
L 208.765284 151.600861 
z
" style="fill:#1f77b4;opacity:0.3;"/>
   </g>
   <g id="patch_15">
    <path clip-path="url(#p6f522c762e)" d="M 221.856193 348.478125 
L 234.947102 348.478125 
L 234.947102 147.225811 
L 221.856193 147.225811 
z
" style="fill:#1f77b4;opacity:0.3;"/>
   </g>
   <g id="patch_16">
    <path clip-path="url(#p6f522c762e)" d="M 234.947102 348.478125 
L 248.038011 348.478125 
L 248.038011 182.226214 
L 234.947102 182.226214 
z
" style="fill:#1f77b4;opacity:0.3;"/>
   </g>
   <g id="patch_17">
    <path clip-path="url(#p6f522c762e)" d="M 248.038011 348.478125 
L 261.12892 348.478125 
L 261.12892 94.725207 
L 248.038011 94.725207 
z
" style="fill:#1f77b4;opacity:0.3;"/>
   </g>
   <g id="patch_18">
    <path clip-path="url(#p6f522c762e)" d="M 261.12892 348.478125 
L 274.21983 348.478125 
L 274.21983 147.225811 
L 261.12892 147.225811 
z
" style="fill:#1f77b4;opacity:0.3;"/>
   </g>
   <g id="patch_19">
    <path clip-path="url(#p6f522c762e)" d="M 274.21983 348.478125 
L 287.310739 348.478125 
L 287.310739 142.850761 
L 274.21983 142.850761 
z
" style="fill:#1f77b4;opacity:0.3;"/>
   </g>
   <g id="patch_20">
    <path clip-path="url(#p6f522c762e)" d="M 287.310739 348.478125 
L 300.401648 348.478125 
L 300.401648 77.225006 
L 287.310739 77.225006 
z
" style="fill:#1f77b4;opacity:0.3;"/>
   </g>
   <g id="patch_21">
    <path clip-path="url(#p6f522c762e)" d="M 300.401648 348.478125 
L 313.492557 348.478125 
L 313.492557 142.850761 
L 300.401648 142.850761 
z
" style="fill:#1f77b4;opacity:0.3;"/>
   </g>
   <g id="patch_22">
    <path clip-path="url(#p6f522c762e)" d="M 313.492557 348.478125 
L 326.583466 348.478125 
L 326.583466 77.225006 
L 313.492557 77.225006 
z
" style="fill:#1f77b4;opacity:0.3;"/>
   </g>
   <g id="patch_23">
    <path clip-path="url(#p6f522c762e)" d="M 326.583466 348.478125 
L 339.674375 348.478125 
L 339.674375 138.475711 
L 326.583466 138.475711 
z
" style="fill:#1f77b4;opacity:0.3;"/>
   </g>
   <g id="patch_24">
    <path clip-path="url(#p6f522c762e)" d="M 339.674375 348.478125 
L 352.765284 348.478125 
L 352.765284 147.225811 
L 339.674375 147.225811 
z
" style="fill:#1f77b4;opacity:0.3;"/>
   </g>
   <g id="patch_25">
    <path clip-path="url(#p6f522c762e)" d="M 352.765284 348.478125 
L 365.856193 348.478125 
L 365.856193 169.101063 
L 352.765284 169.101063 
z
" style="fill:#1f77b4;opacity:0.3;"/>
   </g>
   <g id="patch_26">
    <path clip-path="url(#p6f522c762e)" d="M 365.856193 348.478125 
L 378.947102 348.478125 
L 378.947102 177.851163 
L 365.856193 177.851163 
z
" style="fill:#1f77b4;opacity:0.3;"/>
   </g>
   <g id="patch_27">
    <path clip-path="url(#p6f522c762e)" d="M 378.947102 348.478125 
L 392.038011 348.478125 
L 392.038011 94.725207 
L 378.947102 94.725207 
z
" style="fill:#1f77b4;opacity:0.3;"/>
   </g>
   <g id="patch_28">
    <path clip-path="url(#p6f522c762e)" d="M 392.038011 348.478125 
L 405.12892 348.478125 
L 405.12892 199.726415 
L 392.038011 199.726415 
z
" style="fill:#1f77b4;opacity:0.3;"/>
   </g>
   <g id="patch_29">
    <path clip-path="url(#p6f522c762e)" d="M 405.12892 348.478125 
L 418.21983 348.478125 
L 418.21983 208.476515 
L 405.12892 208.476515 
z
" style="fill:#1f77b4;opacity:0.3;"/>
   </g>
   <g id="patch_30">
    <path clip-path="url(#p6f522c762e)" d="M 418.21983 348.478125 
L 431.310739 348.478125 
L 431.310739 239.101867 
L 418.21983 239.101867 
z
" style="fill:#1f77b4;opacity:0.3;"/>
   </g>
   <g id="patch_31">
    <path clip-path="url(#p6f522c762e)" d="M 431.310739 348.478125 
L 444.401648 348.478125 
L 444.401648 243.476918 
L 431.310739 243.476918 
z
" style="fill:#1f77b4;opacity:0.3;"/>
   </g>
   <g id="patch_32">
    <path clip-path="url(#p6f522c762e)" d="M 444.401648 348.478125 
L 457.492557 348.478125 
L 457.492557 282.85237 
L 444.401648 282.85237 
z
" style="fill:#1f77b4;opacity:0.3;"/>
   </g>
   <g id="patch_33">
    <path clip-path="url(#p6f522c762e)" d="M 457.492557 348.478125 
L 470.583466 348.478125 
L 470.583466 278.47732 
L 457.492557 278.47732 
z
" style="fill:#1f77b4;opacity:0.3;"/>
   </g>
   <g id="patch_34">
    <path clip-path="url(#p6f522c762e)" d="M 90.947102 348.478125 
L 104.038011 348.478125 
L 104.038011 344.103075 
L 90.947102 344.103075 
z
" style="fill:#ff7f0e;opacity:0.3;"/>
   </g>
   <g id="patch_35">
    <path clip-path="url(#p6f522c762e)" d="M 104.038011 348.478125 
L 117.12892 348.478125 
L 117.12892 335.352974 
L 104.038011 335.352974 
z
" style="fill:#ff7f0e;opacity:0.3;"/>
   </g>
   <g id="patch_36">
    <path clip-path="url(#p6f522c762e)" d="M 117.12892 348.478125 
L 130.21983 348.478125 
L 130.21983 344.103075 
L 117.12892 344.103075 
z
" style="fill:#ff7f0e;opacity:0.3;"/>
   </g>
   <g id="patch_37">
    <path clip-path="url(#p6f522c762e)" d="M 130.21983 348.478125 
L 143.310739 348.478125 
L 143.310739 339.728024 
L 130.21983 339.728024 
z
" style="fill:#ff7f0e;opacity:0.3;"/>
   </g>
   <g id="patch_38">
    <path clip-path="url(#p6f522c762e)" d="M 143.310739 348.478125 
L 156.401648 348.478125 
L 156.401648 330.977924 
L 143.310739 330.977924 
z
" style="fill:#ff7f0e;opacity:0.3;"/>
   </g>
   <g id="patch_39">
    <path clip-path="url(#p6f522c762e)" d="M 156.401648 348.478125 
L 169.492557 348.478125 
L 169.492557 326.602873 
L 156.401648 326.602873 
z
" style="fill:#ff7f0e;opacity:0.3;"/>
   </g>
   <g id="patch_40">
    <path clip-path="url(#p6f522c762e)" d="M 169.492557 348.478125 
L 182.583466 348.478125 
L 182.583466 335.352974 
L 169.492557 335.352974 
z
" style="fill:#ff7f0e;opacity:0.3;"/>
   </g>
   <g id="patch_41">
    <path clip-path="url(#p6f522c762e)" d="M 182.583466 348.478125 
L 195.674375 348.478125 
L 195.674375 326.602873 
L 182.583466 326.602873 
z
" style="fill:#ff7f0e;opacity:0.3;"/>
   </g>
   <g id="patch_42">
    <path clip-path="url(#p6f522c762e)" d="M 195.674375 348.478125 
L 208.765284 348.478125 
L 208.765284 330.977924 
L 195.674375 330.977924 
z
" style="fill:#ff7f0e;opacity:0.3;"/>
   </g>
   <g id="patch_43">
    <path clip-path="url(#p6f522c762e)" d="M 208.765284 348.478125 
L 221.856193 348.478125 
L 221.856193 295.977521 
L 208.765284 295.977521 
z
" style="fill:#ff7f0e;opacity:0.3;"/>
   </g>
   <g id="patch_44">
    <path clip-path="url(#p6f522c762e)" d="M 221.856193 348.478125 
L 234.947102 348.478125 
L 234.947102 317.852773 
L 221.856193 317.852773 
z
" style="fill:#ff7f0e;opacity:0.3;"/>
   </g>
   <g id="patch_45">
    <path clip-path="url(#p6f522c762e)" d="M 234.947102 348.478125 
L 248.038011 348.478125 
L 248.038011 287.227421 
L 234.947102 287.227421 
z
" style="fill:#ff7f0e;opacity:0.3;"/>
   </g>
   <g id="patch_46">
    <path clip-path="url(#p6f522c762e)" d="M 248.038011 348.478125 
L 261.12892 348.478125 
L 261.12892 265.352169 
L 248.038011 265.352169 
z
" style="fill:#ff7f0e;opacity:0.3;"/>
   </g>
   <g id="patch_47">
    <path clip-path="url(#p6f522c762e)" d="M 261.12892 348.478125 
L 274.21983 348.478125 
L 274.21983 291.602471 
L 261.12892 291.602471 
z
" style="fill:#ff7f0e;opacity:0.3;"/>
   </g>
   <g id="patch_48">
    <path clip-path="url(#p6f522c762e)" d="M 274.21983 348.478125 
L 287.310739 348.478125 
L 287.310739 295.977521 
L 274.21983 295.977521 
z
" style="fill:#ff7f0e;opacity:0.3;"/>
   </g>
   <g id="patch_49">
    <path clip-path="url(#p6f522c762e)" d="M 287.310739 348.478125 
L 300.401648 348.478125 
L 300.401648 287.227421 
L 287.310739 287.227421 
z
" style="fill:#ff7f0e;opacity:0.3;"/>
   </g>
   <g id="patch_50">
    <path clip-path="url(#p6f522c762e)" d="M 300.401648 348.478125 
L 313.492557 348.478125 
L 313.492557 300.352572 
L 300.401648 300.352572 
z
" style="fill:#ff7f0e;opacity:0.3;"/>
   </g>
   <g id="patch_51">
    <path clip-path="url(#p6f522c762e)" d="M 313.492557 348.478125 
L 326.583466 348.478125 
L 326.583466 269.72722 
L 313.492557 269.72722 
z
" style="fill:#ff7f0e;opacity:0.3;"/>
   </g>
   <g id="patch_52">
    <path clip-path="url(#p6f522c762e)" d="M 326.583466 348.478125 
L 339.674375 348.478125 
L 339.674375 247.851968 
L 326.583466 247.851968 
z
" style="fill:#ff7f0e;opacity:0.3;"/>
   </g>
   <g id="patch_53">
    <path clip-path="url(#p6f522c762e)" d="M 339.674375 348.478125 
L 352.765284 348.478125 
L 352.765284 269.72722 
L 339.674375 269.72722 
z
" style="fill:#ff7f0e;opacity:0.3;"/>
   </g>
   <g id="patch_54">
    <path clip-path="url(#p6f522c762e)" d="M 352.765284 348.478125 
L 365.856193 348.478125 
L 365.856193 234.726817 
L 352.765284 234.726817 
z
" style="fill:#ff7f0e;opacity:0.3;"/>
   </g>
   <g id="patch_55">
    <path clip-path="url(#p6f522c762e)" d="M 365.856193 348.478125 
L 378.947102 348.478125 
L 378.947102 230.351767 
L 365.856193 230.351767 
z
" style="fill:#ff7f0e;opacity:0.3;"/>
   </g>
   <g id="patch_56">
    <path clip-path="url(#p6f522c762e)" d="M 378.947102 348.478125 
L 392.038011 348.478125 
L 392.038011 204.101465 
L 378.947102 204.101465 
z
" style="fill:#ff7f0e;opacity:0.3;"/>
   </g>
   <g id="patch_57">
    <path clip-path="url(#p6f522c762e)" d="M 392.038011 348.478125 
L 405.12892 348.478125 
L 405.12892 239.101867 
L 392.038011 239.101867 
z
" style="fill:#ff7f0e;opacity:0.3;"/>
   </g>
   <g id="patch_58">
    <path clip-path="url(#p6f522c762e)" d="M 405.12892 348.478125 
L 418.21983 348.478125 
L 418.21983 199.726415 
L 405.12892 199.726415 
z
" style="fill:#ff7f0e;opacity:0.3;"/>
   </g>
   <g id="patch_59">
    <path clip-path="url(#p6f522c762e)" d="M 418.21983 348.478125 
L 431.310739 348.478125 
L 431.310739 190.976314 
L 418.21983 190.976314 
z
" style="fill:#ff7f0e;opacity:0.3;"/>
   </g>
   <g id="patch_60">
    <path clip-path="url(#p6f522c762e)" d="M 431.310739 348.478125 
L 444.401648 348.478125 
L 444.401648 239.101867 
L 431.310739 239.101867 
z
" style="fill:#ff7f0e;opacity:0.3;"/>
   </g>
   <g id="patch_61">
    <path clip-path="url(#p6f522c762e)" d="M 444.401648 348.478125 
L 457.492557 348.478125 
L 457.492557 243.476918 
L 444.401648 243.476918 
z
" style="fill:#ff7f0e;opacity:0.3;"/>
   </g>
   <g id="patch_62">
    <path clip-path="url(#p6f522c762e)" d="M 457.492557 348.478125 
L 470.583466 348.478125 
L 470.583466 212.851566 
L 457.492557 212.851566 
z
" style="fill:#ff7f0e;opacity:0.3;"/>
   </g>
   <g id="patch_63">
    <path clip-path="url(#p6f522c762e)" d="M 221.856193 348.478125 
L 234.947102 348.478125 
L 234.947102 339.728024 
L 221.856193 339.728024 
z
" style="fill:#2ca02c;opacity:0.3;"/>
   </g>
   <g id="patch_64">
    <path clip-path="url(#p6f522c762e)" d="M 234.947102 348.478125 
L 248.038011 348.478125 
L 248.038011 326.602873 
L 234.947102 326.602873 
z
" style="fill:#2ca02c;opacity:0.3;"/>
   </g>
   <g id="patch_65">
    <path clip-path="url(#p6f522c762e)" d="M 248.038011 348.478125 
L 261.12892 348.478125 
L 261.12892 221.601666 
L 248.038011 221.601666 
z
" style="fill:#2ca02c;opacity:0.3;"/>
   </g>
   <g id="patch_66">
    <path clip-path="url(#p6f522c762e)" d="M 261.12892 348.478125 
L 274.21983 348.478125 
L 274.21983 239.101867 
L 261.12892 239.101867 
z
" style="fill:#2ca02c;opacity:0.3;"/>
   </g>
   <g id="patch_67">
    <path clip-path="url(#p6f522c762e)" d="M 274.21983 348.478125 
L 287.310739 348.478125 
L 287.310739 243.476918 
L 274.21983 243.476918 
z
" style="fill:#2ca02c;opacity:0.3;"/>
   </g>
   <g id="patch_68">
    <path clip-path="url(#p6f522c762e)" d="M 287.310739 348.478125 
L 300.401648 348.478125 
L 300.401648 160.350962 
L 287.310739 160.350962 
z
" style="fill:#2ca02c;opacity:0.3;"/>
   </g>
   <g id="patch_69">
    <path clip-path="url(#p6f522c762e)" d="M 300.401648 348.478125 
L 313.492557 348.478125 
L 313.492557 190.976314 
L 300.401648 190.976314 
z
" style="fill:#2ca02c;opacity:0.3;"/>
   </g>
   <g id="patch_70">
    <path clip-path="url(#p6f522c762e)" d="M 313.492557 348.478125 
L 326.583466 348.478125 
L 326.583466 138.475711 
L 313.492557 138.475711 
z
" style="fill:#2ca02c;opacity:0.3;"/>
   </g>
   <g id="patch_71">
    <path clip-path="url(#p6f522c762e)" d="M 326.583466 348.478125 
L 339.674375 348.478125 
L 339.674375 173.476113 
L 326.583466 173.476113 
z
" style="fill:#2ca02c;opacity:0.3;"/>
   </g>
   <g id="patch_72">
    <path clip-path="url(#p6f522c762e)" d="M 339.674375 348.478125 
L 352.765284 348.478125 
L 352.765284 138.475711 
L 339.674375 138.475711 
z
" style="fill:#2ca02c;opacity:0.3;"/>
   </g>
   <g id="patch_73">
    <path clip-path="url(#p6f522c762e)" d="M 352.765284 348.478125 
L 365.856193 348.478125 
L 365.856193 116.600459 
L 352.765284 116.600459 
z
" style="fill:#2ca02c;opacity:0.3;"/>
   </g>
   <g id="patch_74">
    <path clip-path="url(#p6f522c762e)" d="M 365.856193 348.478125 
L 378.947102 348.478125 
L 378.947102 164.726012 
L 365.856193 164.726012 
z
" style="fill:#2ca02c;opacity:0.3;"/>
   </g>
   <g id="patch_75">
    <path clip-path="url(#p6f522c762e)" d="M 378.947102 348.478125 
L 392.038011 348.478125 
L 392.038011 37.849554 
L 378.947102 37.849554 
z
" style="fill:#2ca02c;opacity:0.3;"/>
   </g>
   <g id="patch_76">
    <path clip-path="url(#p6f522c762e)" d="M 392.038011 348.478125 
L 405.12892 348.478125 
L 405.12892 142.850761 
L 392.038011 142.850761 
z
" style="fill:#2ca02c;opacity:0.3;"/>
   </g>
   <g id="patch_77">
    <path clip-path="url(#p6f522c762e)" d="M 405.12892 348.478125 
L 418.21983 348.478125 
L 418.21983 112.225409 
L 405.12892 112.225409 
z
" style="fill:#2ca02c;opacity:0.3;"/>
   </g>
   <g id="patch_78">
    <path clip-path="url(#p6f522c762e)" d="M 418.21983 348.478125 
L 431.310739 348.478125 
L 431.310739 138.475711 
L 418.21983 138.475711 
z
" style="fill:#2ca02c;opacity:0.3;"/>
   </g>
   <g id="patch_79">
    <path clip-path="url(#p6f522c762e)" d="M 431.310739 348.478125 
L 444.401648 348.478125 
L 444.401648 190.976314 
L 431.310739 190.976314 
z
" style="fill:#2ca02c;opacity:0.3;"/>
   </g>
   <g id="patch_80">
    <path clip-path="url(#p6f522c762e)" d="M 444.401648 348.478125 
L 457.492557 348.478125 
L 457.492557 208.476515 
L 444.401648 208.476515 
z
" style="fill:#2ca02c;opacity:0.3;"/>
   </g>
   <g id="patch_81">
    <path clip-path="url(#p6f522c762e)" d="M 457.492557 348.478125 
L 470.583466 348.478125 
L 470.583466 182.226214 
L 457.492557 182.226214 
z
" style="fill:#2ca02c;opacity:0.3;"/>
   </g>
   <g id="matplotlib.axis_1">
    <g id="xtick_1">
     <g id="line2d_1">
      <defs>
       <path d="M 0 0 
L 0 3.5 
" id="m117dee80b7" style="stroke:#000000;stroke-width:0.8;"/>
      </defs>
      <g>
       <use style="stroke:#000000;stroke-width:0.8;" x="64.765284" xlink:href="#m117dee80b7" y="348.478125"/>
      </g>
     </g>
     <g id="text_1">
      <!-- 1990 -->
      <defs>
       <path d="M 12.40625 8.296875 
L 28.515625 8.296875 
L 28.515625 63.921875 
L 10.984375 60.40625 
L 10.984375 69.390625 
L 28.421875 72.90625 
L 38.28125 72.90625 
L 38.28125 8.296875 
L 54.390625 8.296875 
L 54.390625 0 
L 12.40625 0 
z
" id="DejaVuSans-49"/>
       <path d="M 10.984375 1.515625 
L 10.984375 10.5 
Q 14.703125 8.734375 18.5 7.8125 
Q 22.3125 6.890625 25.984375 6.890625 
Q 35.75 6.890625 40.890625 13.453125 
Q 46.046875 20.015625 46.78125 33.40625 
Q 43.953125 29.203125 39.59375 26.953125 
Q 35.25 24.703125 29.984375 24.703125 
Q 19.046875 24.703125 12.671875 31.3125 
Q 6.296875 37.9375 6.296875 49.421875 
Q 6.296875 60.640625 12.9375 67.421875 
Q 19.578125 74.21875 30.609375 74.21875 
Q 43.265625 74.21875 49.921875 64.515625 
Q 56.59375 54.828125 56.59375 36.375 
Q 56.59375 19.140625 48.40625 8.859375 
Q 40.234375 -1.421875 26.421875 -1.421875 
Q 22.703125 -1.421875 18.890625 -0.6875 
Q 15.09375 0.046875 10.984375 1.515625 
z
M 30.609375 32.421875 
Q 37.25 32.421875 41.125 36.953125 
Q 45.015625 41.5 45.015625 49.421875 
Q 45.015625 57.28125 41.125 61.84375 
Q 37.25 66.40625 30.609375 66.40625 
Q 23.96875 66.40625 20.09375 61.84375 
Q 16.21875 57.28125 16.21875 49.421875 
Q 16.21875 41.5 20.09375 36.953125 
Q 23.96875 32.421875 30.609375 32.421875 
z
" id="DejaVuSans-57"/>
       <path d="M 31.78125 66.40625 
Q 24.171875 66.40625 20.328125 58.90625 
Q 16.5 51.421875 16.5 36.375 
Q 16.5 21.390625 20.328125 13.890625 
Q 24.171875 6.390625 31.78125 6.390625 
Q 39.453125 6.390625 43.28125 13.890625 
Q 47.125 21.390625 47.125 36.375 
Q 47.125 51.421875 43.28125 58.90625 
Q 39.453125 66.40625 31.78125 66.40625 
z
M 31.78125 74.21875 
Q 44.046875 74.21875 50.515625 64.515625 
Q 56.984375 54.828125 56.984375 36.375 
Q 56.984375 17.96875 50.515625 8.265625 
Q 44.046875 -1.421875 31.78125 -1.421875 
Q 19.53125 -1.421875 13.0625 8.265625 
Q 6.59375 17.96875 6.59375 36.375 
Q 6.59375 54.828125 13.0625 64.515625 
Q 19.53125 74.21875 31.78125 74.21875 
z
" id="DejaVuSans-48"/>
      </defs>
      <g transform="translate(52.040284 363.076562)scale(0.1 -0.1)">
       <use xlink:href="#DejaVuSans-49"/>
       <use x="63.623047" xlink:href="#DejaVuSans-57"/>
       <use x="127.246094" xlink:href="#DejaVuSans-57"/>
       <use x="190.869141" xlink:href="#DejaVuSans-48"/>
      </g>
     </g>
    </g>
    <g id="xtick_2">
     <g id="line2d_2">
      <g>
       <use style="stroke:#000000;stroke-width:0.8;" x="130.21983" xlink:href="#m117dee80b7" y="348.478125"/>
      </g>
     </g>
     <g id="text_2">
      <!-- 1995 -->
      <defs>
       <path d="M 10.796875 72.90625 
L 49.515625 72.90625 
L 49.515625 64.59375 
L 19.828125 64.59375 
L 19.828125 46.734375 
Q 21.96875 47.46875 24.109375 47.828125 
Q 26.265625 48.1875 28.421875 48.1875 
Q 40.625 48.1875 47.75 41.5 
Q 54.890625 34.8125 54.890625 23.390625 
Q 54.890625 11.625 47.5625 5.09375 
Q 40.234375 -1.421875 26.90625 -1.421875 
Q 22.3125 -1.421875 17.546875 -0.640625 
Q 12.796875 0.140625 7.71875 1.703125 
L 7.71875 11.625 
Q 12.109375 9.234375 16.796875 8.0625 
Q 21.484375 6.890625 26.703125 6.890625 
Q 35.15625 6.890625 40.078125 11.328125 
Q 45.015625 15.765625 45.015625 23.390625 
Q 45.015625 31 40.078125 35.4375 
Q 35.15625 39.890625 26.703125 39.890625 
Q 22.75 39.890625 18.8125 39.015625 
Q 14.890625 38.140625 10.796875 36.28125 
z
" id="DejaVuSans-53"/>
      </defs>
      <g transform="translate(117.49483 363.076562)scale(0.1 -0.1)">
       <use xlink:href="#DejaVuSans-49"/>
       <use x="63.623047" xlink:href="#DejaVuSans-57"/>
       <use x="127.246094" xlink:href="#DejaVuSans-57"/>
       <use x="190.869141" xlink:href="#DejaVuSans-53"/>
      </g>
     </g>
    </g>
    <g id="xtick_3">
     <g id="line2d_3">
      <g>
       <use style="stroke:#000000;stroke-width:0.8;" x="195.674375" xlink:href="#m117dee80b7" y="348.478125"/>
      </g>
     </g>
     <g id="text_3">
      <!-- 2000 -->
      <defs>
       <path d="M 19.1875 8.296875 
L 53.609375 8.296875 
L 53.609375 0 
L 7.328125 0 
L 7.328125 8.296875 
Q 12.9375 14.109375 22.625 23.890625 
Q 32.328125 33.6875 34.8125 36.53125 
Q 39.546875 41.84375 41.421875 45.53125 
Q 43.3125 49.21875 43.3125 52.78125 
Q 43.3125 58.59375 39.234375 62.25 
Q 35.15625 65.921875 28.609375 65.921875 
Q 23.96875 65.921875 18.8125 64.3125 
Q 13.671875 62.703125 7.8125 59.421875 
L 7.8125 69.390625 
Q 13.765625 71.78125 18.9375 73 
Q 24.125 74.21875 28.421875 74.21875 
Q 39.75 74.21875 46.484375 68.546875 
Q 53.21875 62.890625 53.21875 53.421875 
Q 53.21875 48.921875 51.53125 44.890625 
Q 49.859375 40.875 45.40625 35.40625 
Q 44.1875 33.984375 37.640625 27.21875 
Q 31.109375 20.453125 19.1875 8.296875 
z
" id="DejaVuSans-50"/>
      </defs>
      <g transform="translate(182.949375 363.076562)scale(0.1 -0.1)">
       <use xlink:href="#DejaVuSans-50"/>
       <use x="63.623047" xlink:href="#DejaVuSans-48"/>
       <use x="127.246094" xlink:href="#DejaVuSans-48"/>
       <use x="190.869141" xlink:href="#DejaVuSans-48"/>
      </g>
     </g>
    </g>
    <g id="xtick_4">
     <g id="line2d_4">
      <g>
       <use style="stroke:#000000;stroke-width:0.8;" x="261.12892" xlink:href="#m117dee80b7" y="348.478125"/>
      </g>
     </g>
     <g id="text_4">
      <!-- 2005 -->
      <g transform="translate(248.40392 363.076562)scale(0.1 -0.1)">
       <use xlink:href="#DejaVuSans-50"/>
       <use x="63.623047" xlink:href="#DejaVuSans-48"/>
       <use x="127.246094" xlink:href="#DejaVuSans-48"/>
       <use x="190.869141" xlink:href="#DejaVuSans-53"/>
      </g>
     </g>
    </g>
    <g id="xtick_5">
     <g id="line2d_5">
      <g>
       <use style="stroke:#000000;stroke-width:0.8;" x="326.583466" xlink:href="#m117dee80b7" y="348.478125"/>
      </g>
     </g>
     <g id="text_5">
      <!-- 2010 -->
      <g transform="translate(313.858466 363.076562)scale(0.1 -0.1)">
       <use xlink:href="#DejaVuSans-50"/>
       <use x="63.623047" xlink:href="#DejaVuSans-48"/>
       <use x="127.246094" xlink:href="#DejaVuSans-49"/>
       <use x="190.869141" xlink:href="#DejaVuSans-48"/>
      </g>
     </g>
    </g>
    <g id="xtick_6">
     <g id="line2d_6">
      <g>
       <use style="stroke:#000000;stroke-width:0.8;" x="392.038011" xlink:href="#m117dee80b7" y="348.478125"/>
      </g>
     </g>
     <g id="text_6">
      <!-- 2015 -->
      <g transform="translate(379.313011 363.076562)scale(0.1 -0.1)">
       <use xlink:href="#DejaVuSans-50"/>
       <use x="63.623047" xlink:href="#DejaVuSans-48"/>
       <use x="127.246094" xlink:href="#DejaVuSans-49"/>
       <use x="190.869141" xlink:href="#DejaVuSans-53"/>
      </g>
     </g>
    </g>
    <g id="xtick_7">
     <g id="line2d_7">
      <g>
       <use style="stroke:#000000;stroke-width:0.8;" x="457.492557" xlink:href="#m117dee80b7" y="348.478125"/>
      </g>
     </g>
     <g id="text_7">
      <!-- 2020 -->
      <g transform="translate(444.767557 363.076562)scale(0.1 -0.1)">
       <use xlink:href="#DejaVuSans-50"/>
       <use x="63.623047" xlink:href="#DejaVuSans-48"/>
       <use x="127.246094" xlink:href="#DejaVuSans-50"/>
       <use x="190.869141" xlink:href="#DejaVuSans-48"/>
      </g>
     </g>
    </g>
    <g id="text_8">
     <!-- Year -->
     <defs>
      <path d="M -0.203125 72.90625 
L 10.40625 72.90625 
L 30.609375 42.921875 
L 50.6875 72.90625 
L 61.28125 72.90625 
L 35.5 34.71875 
L 35.5 0 
L 25.59375 0 
L 25.59375 34.71875 
z
" id="DejaVuSans-89"/>
      <path d="M 56.203125 29.59375 
L 56.203125 25.203125 
L 14.890625 25.203125 
Q 15.484375 15.921875 20.484375 11.0625 
Q 25.484375 6.203125 34.421875 6.203125 
Q 39.59375 6.203125 44.453125 7.46875 
Q 49.3125 8.734375 54.109375 11.28125 
L 54.109375 2.78125 
Q 49.265625 0.734375 44.1875 -0.34375 
Q 39.109375 -1.421875 33.890625 -1.421875 
Q 20.796875 -1.421875 13.15625 6.1875 
Q 5.515625 13.8125 5.515625 26.8125 
Q 5.515625 40.234375 12.765625 48.109375 
Q 20.015625 56 32.328125 56 
Q 43.359375 56 49.78125 48.890625 
Q 56.203125 41.796875 56.203125 29.59375 
z
M 47.21875 32.234375 
Q 47.125 39.59375 43.09375 43.984375 
Q 39.0625 48.390625 32.421875 48.390625 
Q 24.90625 48.390625 20.390625 44.140625 
Q 15.875 39.890625 15.1875 32.171875 
z
" id="DejaVuSans-101"/>
      <path d="M 34.28125 27.484375 
Q 23.390625 27.484375 19.1875 25 
Q 14.984375 22.515625 14.984375 16.5 
Q 14.984375 11.71875 18.140625 8.90625 
Q 21.296875 6.109375 26.703125 6.109375 
Q 34.1875 6.109375 38.703125 11.40625 
Q 43.21875 16.703125 43.21875 25.484375 
L 43.21875 27.484375 
z
M 52.203125 31.203125 
L 52.203125 0 
L 43.21875 0 
L 43.21875 8.296875 
Q 40.140625 3.328125 35.546875 0.953125 
Q 30.953125 -1.421875 24.3125 -1.421875 
Q 15.921875 -1.421875 10.953125 3.296875 
Q 6 8.015625 6 15.921875 
Q 6 25.140625 12.171875 29.828125 
Q 18.359375 34.515625 30.609375 34.515625 
L 43.21875 34.515625 
L 43.21875 35.40625 
Q 43.21875 41.609375 39.140625 45 
Q 35.0625 48.390625 27.6875 48.390625 
Q 23 48.390625 18.546875 47.265625 
Q 14.109375 46.140625 10.015625 43.890625 
L 10.015625 52.203125 
Q 14.9375 54.109375 19.578125 55.046875 
Q 24.21875 56 28.609375 56 
Q 40.484375 56 46.34375 49.84375 
Q 52.203125 43.703125 52.203125 31.203125 
z
" id="DejaVuSans-97"/>
      <path d="M 41.109375 46.296875 
Q 39.59375 47.171875 37.8125 47.578125 
Q 36.03125 48 33.890625 48 
Q 26.265625 48 22.1875 43.046875 
Q 18.109375 38.09375 18.109375 28.8125 
L 18.109375 0 
L 9.078125 0 
L 9.078125 54.6875 
L 18.109375 54.6875 
L 18.109375 46.1875 
Q 20.953125 51.171875 25.484375 53.578125 
Q 30.03125 56 36.53125 56 
Q 37.453125 56 38.578125 55.875 
Q 39.703125 55.765625 41.0625 55.515625 
z
" id="DejaVuSans-114"/>
     </defs>
     <g transform="translate(251.938594 379.794062)scale(0.14 -0.14)">
      <use xlink:href="#DejaVuSans-89"/>
      <use x="60.880859" xlink:href="#DejaVuSans-101"/>
      <use x="122.404297" xlink:href="#DejaVuSans-97"/>
      <use x="183.683594" xlink:href="#DejaVuSans-114"/>
     </g>
    </g>
   </g>
   <g id="matplotlib.axis_2">
    <g id="ytick_1">
     <g id="line2d_8">
      <defs>
       <path d="M 0 0 
L -3.5 0 
" id="m59929c535b" style="stroke:#000000;stroke-width:0.8;"/>
      </defs>
      <g>
       <use style="stroke:#000000;stroke-width:0.8;" x="44.474375" xlink:href="#m59929c535b" y="348.478125"/>
      </g>
     </g>
     <g id="text_9">
      <!-- 0 -->
      <g transform="translate(31.111875 352.277344)scale(0.1 -0.1)">
       <use xlink:href="#DejaVuSans-48"/>
      </g>
     </g>
    </g>
    <g id="ytick_2">
     <g id="line2d_9">
      <g>
       <use style="stroke:#000000;stroke-width:0.8;" x="44.474375" xlink:href="#m59929c535b" y="304.727622"/>
      </g>
     </g>
     <g id="text_10">
      <!-- 10 -->
      <g transform="translate(24.749375 308.526841)scale(0.1 -0.1)">
       <use xlink:href="#DejaVuSans-49"/>
       <use x="63.623047" xlink:href="#DejaVuSans-48"/>
      </g>
     </g>
    </g>
    <g id="ytick_3">
     <g id="line2d_10">
      <g>
       <use style="stroke:#000000;stroke-width:0.8;" x="44.474375" xlink:href="#m59929c535b" y="260.977119"/>
      </g>
     </g>
     <g id="text_11">
      <!-- 20 -->
      <g transform="translate(24.749375 264.776338)scale(0.1 -0.1)">
       <use xlink:href="#DejaVuSans-50"/>
       <use x="63.623047" xlink:href="#DejaVuSans-48"/>
      </g>
     </g>
    </g>
    <g id="ytick_4">
     <g id="line2d_11">
      <g>
       <use style="stroke:#000000;stroke-width:0.8;" x="44.474375" xlink:href="#m59929c535b" y="217.226616"/>
      </g>
     </g>
     <g id="text_12">
      <!-- 30 -->
      <defs>
       <path d="M 40.578125 39.3125 
Q 47.65625 37.796875 51.625 33 
Q 55.609375 28.21875 55.609375 21.1875 
Q 55.609375 10.40625 48.1875 4.484375 
Q 40.765625 -1.421875 27.09375 -1.421875 
Q 22.515625 -1.421875 17.65625 -0.515625 
Q 12.796875 0.390625 7.625 2.203125 
L 7.625 11.71875 
Q 11.71875 9.328125 16.59375 8.109375 
Q 21.484375 6.890625 26.8125 6.890625 
Q 36.078125 6.890625 40.9375 10.546875 
Q 45.796875 14.203125 45.796875 21.1875 
Q 45.796875 27.640625 41.28125 31.265625 
Q 36.765625 34.90625 28.71875 34.90625 
L 20.21875 34.90625 
L 20.21875 43.015625 
L 29.109375 43.015625 
Q 36.375 43.015625 40.234375 45.921875 
Q 44.09375 48.828125 44.09375 54.296875 
Q 44.09375 59.90625 40.109375 62.90625 
Q 36.140625 65.921875 28.71875 65.921875 
Q 24.65625 65.921875 20.015625 65.03125 
Q 15.375 64.15625 9.8125 62.3125 
L 9.8125 71.09375 
Q 15.4375 72.65625 20.34375 73.4375 
Q 25.25 74.21875 29.59375 74.21875 
Q 40.828125 74.21875 47.359375 69.109375 
Q 53.90625 64.015625 53.90625 55.328125 
Q 53.90625 49.265625 50.4375 45.09375 
Q 46.96875 40.921875 40.578125 39.3125 
z
" id="DejaVuSans-51"/>
      </defs>
      <g transform="translate(24.749375 221.025835)scale(0.1 -0.1)">
       <use xlink:href="#DejaVuSans-51"/>
       <use x="63.623047" xlink:href="#DejaVuSans-48"/>
      </g>
     </g>
    </g>
    <g id="ytick_5">
     <g id="line2d_12">
      <g>
       <use style="stroke:#000000;stroke-width:0.8;" x="44.474375" xlink:href="#m59929c535b" y="173.476113"/>
      </g>
     </g>
     <g id="text_13">
      <!-- 40 -->
      <defs>
       <path d="M 37.796875 64.3125 
L 12.890625 25.390625 
L 37.796875 25.390625 
z
M 35.203125 72.90625 
L 47.609375 72.90625 
L 47.609375 25.390625 
L 58.015625 25.390625 
L 58.015625 17.1875 
L 47.609375 17.1875 
L 47.609375 0 
L 37.796875 0 
L 37.796875 17.1875 
L 4.890625 17.1875 
L 4.890625 26.703125 
z
" id="DejaVuSans-52"/>
      </defs>
      <g transform="translate(24.749375 177.275332)scale(0.1 -0.1)">
       <use xlink:href="#DejaVuSans-52"/>
       <use x="63.623047" xlink:href="#DejaVuSans-48"/>
      </g>
     </g>
    </g>
    <g id="ytick_6">
     <g id="line2d_13">
      <g>
       <use style="stroke:#000000;stroke-width:0.8;" x="44.474375" xlink:href="#m59929c535b" y="129.72561"/>
      </g>
     </g>
     <g id="text_14">
      <!-- 50 -->
      <g transform="translate(24.749375 133.524829)scale(0.1 -0.1)">
       <use xlink:href="#DejaVuSans-53"/>
       <use x="63.623047" xlink:href="#DejaVuSans-48"/>
      </g>
     </g>
    </g>
    <g id="ytick_7">
     <g id="line2d_14">
      <g>
       <use style="stroke:#000000;stroke-width:0.8;" x="44.474375" xlink:href="#m59929c535b" y="85.975107"/>
      </g>
     </g>
     <g id="text_15">
      <!-- 60 -->
      <defs>
       <path d="M 33.015625 40.375 
Q 26.375 40.375 22.484375 35.828125 
Q 18.609375 31.296875 18.609375 23.390625 
Q 18.609375 15.53125 22.484375 10.953125 
Q 26.375 6.390625 33.015625 6.390625 
Q 39.65625 6.390625 43.53125 10.953125 
Q 47.40625 15.53125 47.40625 23.390625 
Q 47.40625 31.296875 43.53125 35.828125 
Q 39.65625 40.375 33.015625 40.375 
z
M 52.59375 71.296875 
L 52.59375 62.3125 
Q 48.875 64.0625 45.09375 64.984375 
Q 41.3125 65.921875 37.59375 65.921875 
Q 27.828125 65.921875 22.671875 59.328125 
Q 17.53125 52.734375 16.796875 39.40625 
Q 19.671875 43.65625 24.015625 45.921875 
Q 28.375 48.1875 33.59375 48.1875 
Q 44.578125 48.1875 50.953125 41.515625 
Q 57.328125 34.859375 57.328125 23.390625 
Q 57.328125 12.15625 50.6875 5.359375 
Q 44.046875 -1.421875 33.015625 -1.421875 
Q 20.359375 -1.421875 13.671875 8.265625 
Q 6.984375 17.96875 6.984375 36.375 
Q 6.984375 53.65625 15.1875 63.9375 
Q 23.390625 74.21875 37.203125 74.21875 
Q 40.921875 74.21875 44.703125 73.484375 
Q 48.484375 72.75 52.59375 71.296875 
z
" id="DejaVuSans-54"/>
      </defs>
      <g transform="translate(24.749375 89.774326)scale(0.1 -0.1)">
       <use xlink:href="#DejaVuSans-54"/>
       <use x="63.623047" xlink:href="#DejaVuSans-48"/>
      </g>
     </g>
    </g>
    <g id="ytick_8">
     <g id="line2d_15">
      <g>
       <use style="stroke:#000000;stroke-width:0.8;" x="44.474375" xlink:href="#m59929c535b" y="42.224604"/>
      </g>
     </g>
     <g id="text_16">
      <!-- 70 -->
      <defs>
       <path d="M 8.203125 72.90625 
L 55.078125 72.90625 
L 55.078125 68.703125 
L 28.609375 0 
L 18.3125 0 
L 43.21875 64.59375 
L 8.203125 64.59375 
z
" id="DejaVuSans-55"/>
      </defs>
      <g transform="translate(24.749375 46.023823)scale(0.1 -0.1)">
       <use xlink:href="#DejaVuSans-55"/>
       <use x="63.623047" xlink:href="#DejaVuSans-48"/>
      </g>
     </g>
    </g>
    <g id="text_17">
     <!-- Count -->
     <defs>
      <path d="M 64.40625 67.28125 
L 64.40625 56.890625 
Q 59.421875 61.53125 53.78125 63.8125 
Q 48.140625 66.109375 41.796875 66.109375 
Q 29.296875 66.109375 22.65625 58.46875 
Q 16.015625 50.828125 16.015625 36.375 
Q 16.015625 21.96875 22.65625 14.328125 
Q 29.296875 6.6875 41.796875 6.6875 
Q 48.140625 6.6875 53.78125 8.984375 
Q 59.421875 11.28125 64.40625 15.921875 
L 64.40625 5.609375 
Q 59.234375 2.09375 53.4375 0.328125 
Q 47.65625 -1.421875 41.21875 -1.421875 
Q 24.65625 -1.421875 15.125 8.703125 
Q 5.609375 18.84375 5.609375 36.375 
Q 5.609375 53.953125 15.125 64.078125 
Q 24.65625 74.21875 41.21875 74.21875 
Q 47.75 74.21875 53.53125 72.484375 
Q 59.328125 70.75 64.40625 67.28125 
z
" id="DejaVuSans-67"/>
      <path d="M 30.609375 48.390625 
Q 23.390625 48.390625 19.1875 42.75 
Q 14.984375 37.109375 14.984375 27.296875 
Q 14.984375 17.484375 19.15625 11.84375 
Q 23.34375 6.203125 30.609375 6.203125 
Q 37.796875 6.203125 41.984375 11.859375 
Q 46.1875 17.53125 46.1875 27.296875 
Q 46.1875 37.015625 41.984375 42.703125 
Q 37.796875 48.390625 30.609375 48.390625 
z
M 30.609375 56 
Q 42.328125 56 49.015625 48.375 
Q 55.71875 40.765625 55.71875 27.296875 
Q 55.71875 13.875 49.015625 6.21875 
Q 42.328125 -1.421875 30.609375 -1.421875 
Q 18.84375 -1.421875 12.171875 6.21875 
Q 5.515625 13.875 5.515625 27.296875 
Q 5.515625 40.765625 12.171875 48.375 
Q 18.84375 56 30.609375 56 
z
" id="DejaVuSans-111"/>
      <path d="M 8.5 21.578125 
L 8.5 54.6875 
L 17.484375 54.6875 
L 17.484375 21.921875 
Q 17.484375 14.15625 20.5 10.265625 
Q 23.53125 6.390625 29.59375 6.390625 
Q 36.859375 6.390625 41.078125 11.03125 
Q 45.3125 15.671875 45.3125 23.6875 
L 45.3125 54.6875 
L 54.296875 54.6875 
L 54.296875 0 
L 45.3125 0 
L 45.3125 8.40625 
Q 42.046875 3.421875 37.71875 1 
Q 33.40625 -1.421875 27.6875 -1.421875 
Q 18.265625 -1.421875 13.375 4.4375 
Q 8.5 10.296875 8.5 21.578125 
z
M 31.109375 56 
z
" id="DejaVuSans-117"/>
      <path d="M 54.890625 33.015625 
L 54.890625 0 
L 45.90625 0 
L 45.90625 32.71875 
Q 45.90625 40.484375 42.875 44.328125 
Q 39.84375 48.1875 33.796875 48.1875 
Q 26.515625 48.1875 22.3125 43.546875 
Q 18.109375 38.921875 18.109375 30.90625 
L 18.109375 0 
L 9.078125 0 
L 9.078125 54.6875 
L 18.109375 54.6875 
L 18.109375 46.1875 
Q 21.34375 51.125 25.703125 53.5625 
Q 30.078125 56 35.796875 56 
Q 45.21875 56 50.046875 50.171875 
Q 54.890625 44.34375 54.890625 33.015625 
z
" id="DejaVuSans-110"/>
      <path d="M 18.3125 70.21875 
L 18.3125 54.6875 
L 36.8125 54.6875 
L 36.8125 47.703125 
L 18.3125 47.703125 
L 18.3125 18.015625 
Q 18.3125 11.328125 20.140625 9.421875 
Q 21.96875 7.515625 27.59375 7.515625 
L 36.8125 7.515625 
L 36.8125 0 
L 27.59375 0 
Q 17.1875 0 13.234375 3.875 
Q 9.28125 7.765625 9.28125 18.015625 
L 9.28125 47.703125 
L 2.6875 47.703125 
L 2.6875 54.6875 
L 9.28125 54.6875 
L 9.28125 70.21875 
z
" id="DejaVuSans-116"/>
     </defs>
     <g transform="translate(17.837813 206.185937)rotate(-90)scale(0.14 -0.14)">
      <use xlink:href="#DejaVuSans-67"/>
      <use x="69.824219" xlink:href="#DejaVuSans-111"/>
      <use x="131.005859" xlink:href="#DejaVuSans-117"/>
      <use x="194.384766" xlink:href="#DejaVuSans-110"/>
      <use x="257.763672" xlink:href="#DejaVuSans-116"/>
     </g>
    </g>
   </g>
   <g id="patch_82">
    <path d="M 44.474375 348.478125 
L 44.474375 22.318125 
" style="fill:none;stroke:#000000;stroke-linecap:square;stroke-linejoin:miter;stroke-width:0.8;"/>
   </g>
   <g id="patch_83">
    <path d="M 490.874375 348.478125 
L 490.874375 22.318125 
" style="fill:none;stroke:#000000;stroke-linecap:square;stroke-linejoin:miter;stroke-width:0.8;"/>
   </g>
   <g id="patch_84">
    <path d="M 44.474375 348.478125 
L 490.874375 348.478125 
" style="fill:none;stroke:#000000;stroke-linecap:square;stroke-linejoin:miter;stroke-width:0.8;"/>
   </g>
   <g id="patch_85">
    <path d="M 44.474375 22.318125 
L 490.874375 22.318125 
" style="fill:none;stroke:#000000;stroke-linecap:square;stroke-linejoin:miter;stroke-width:0.8;"/>
   </g>
   <g id="text_18">
    <!-- Inference method over time (n=1317) -->
    <defs>
     <path d="M 9.8125 72.90625 
L 19.671875 72.90625 
L 19.671875 0 
L 9.8125 0 
z
" id="DejaVuSans-73"/>
     <path d="M 37.109375 75.984375 
L 37.109375 68.5 
L 28.515625 68.5 
Q 23.6875 68.5 21.796875 66.546875 
Q 19.921875 64.59375 19.921875 59.515625 
L 19.921875 54.6875 
L 34.71875 54.6875 
L 34.71875 47.703125 
L 19.921875 47.703125 
L 19.921875 0 
L 10.890625 0 
L 10.890625 47.703125 
L 2.296875 47.703125 
L 2.296875 54.6875 
L 10.890625 54.6875 
L 10.890625 58.5 
Q 10.890625 67.625 15.140625 71.796875 
Q 19.390625 75.984375 28.609375 75.984375 
z
" id="DejaVuSans-102"/>
     <path d="M 48.78125 52.59375 
L 48.78125 44.1875 
Q 44.96875 46.296875 41.140625 47.34375 
Q 37.3125 48.390625 33.40625 48.390625 
Q 24.65625 48.390625 19.8125 42.84375 
Q 14.984375 37.3125 14.984375 27.296875 
Q 14.984375 17.28125 19.8125 11.734375 
Q 24.65625 6.203125 33.40625 6.203125 
Q 37.3125 6.203125 41.140625 7.25 
Q 44.96875 8.296875 48.78125 10.40625 
L 48.78125 2.09375 
Q 45.015625 0.34375 40.984375 -0.53125 
Q 36.96875 -1.421875 32.421875 -1.421875 
Q 20.0625 -1.421875 12.78125 6.34375 
Q 5.515625 14.109375 5.515625 27.296875 
Q 5.515625 40.671875 12.859375 48.328125 
Q 20.21875 56 33.015625 56 
Q 37.15625 56 41.109375 55.140625 
Q 45.0625 54.296875 48.78125 52.59375 
z
" id="DejaVuSans-99"/>
     <path id="DejaVuSans-32"/>
     <path d="M 52 44.1875 
Q 55.375 50.25 60.0625 53.125 
Q 64.75 56 71.09375 56 
Q 79.640625 56 84.28125 50.015625 
Q 88.921875 44.046875 88.921875 33.015625 
L 88.921875 0 
L 79.890625 0 
L 79.890625 32.71875 
Q 79.890625 40.578125 77.09375 44.375 
Q 74.3125 48.1875 68.609375 48.1875 
Q 61.625 48.1875 57.5625 43.546875 
Q 53.515625 38.921875 53.515625 30.90625 
L 53.515625 0 
L 44.484375 0 
L 44.484375 32.71875 
Q 44.484375 40.625 41.703125 44.40625 
Q 38.921875 48.1875 33.109375 48.1875 
Q 26.21875 48.1875 22.15625 43.53125 
Q 18.109375 38.875 18.109375 30.90625 
L 18.109375 0 
L 9.078125 0 
L 9.078125 54.6875 
L 18.109375 54.6875 
L 18.109375 46.1875 
Q 21.1875 51.21875 25.484375 53.609375 
Q 29.78125 56 35.6875 56 
Q 41.65625 56 45.828125 52.96875 
Q 50 49.953125 52 44.1875 
z
" id="DejaVuSans-109"/>
     <path d="M 54.890625 33.015625 
L 54.890625 0 
L 45.90625 0 
L 45.90625 32.71875 
Q 45.90625 40.484375 42.875 44.328125 
Q 39.84375 48.1875 33.796875 48.1875 
Q 26.515625 48.1875 22.3125 43.546875 
Q 18.109375 38.921875 18.109375 30.90625 
L 18.109375 0 
L 9.078125 0 
L 9.078125 75.984375 
L 18.109375 75.984375 
L 18.109375 46.1875 
Q 21.34375 51.125 25.703125 53.5625 
Q 30.078125 56 35.796875 56 
Q 45.21875 56 50.046875 50.171875 
Q 54.890625 44.34375 54.890625 33.015625 
z
" id="DejaVuSans-104"/>
     <path d="M 45.40625 46.390625 
L 45.40625 75.984375 
L 54.390625 75.984375 
L 54.390625 0 
L 45.40625 0 
L 45.40625 8.203125 
Q 42.578125 3.328125 38.25 0.953125 
Q 33.9375 -1.421875 27.875 -1.421875 
Q 17.96875 -1.421875 11.734375 6.484375 
Q 5.515625 14.40625 5.515625 27.296875 
Q 5.515625 40.1875 11.734375 48.09375 
Q 17.96875 56 27.875 56 
Q 33.9375 56 38.25 53.625 
Q 42.578125 51.265625 45.40625 46.390625 
z
M 14.796875 27.296875 
Q 14.796875 17.390625 18.875 11.75 
Q 22.953125 6.109375 30.078125 6.109375 
Q 37.203125 6.109375 41.296875 11.75 
Q 45.40625 17.390625 45.40625 27.296875 
Q 45.40625 37.203125 41.296875 42.84375 
Q 37.203125 48.484375 30.078125 48.484375 
Q 22.953125 48.484375 18.875 42.84375 
Q 14.796875 37.203125 14.796875 27.296875 
z
" id="DejaVuSans-100"/>
     <path d="M 2.984375 54.6875 
L 12.5 54.6875 
L 29.59375 8.796875 
L 46.6875 54.6875 
L 56.203125 54.6875 
L 35.6875 0 
L 23.484375 0 
z
" id="DejaVuSans-118"/>
     <path d="M 9.421875 54.6875 
L 18.40625 54.6875 
L 18.40625 0 
L 9.421875 0 
z
M 9.421875 75.984375 
L 18.40625 75.984375 
L 18.40625 64.59375 
L 9.421875 64.59375 
z
" id="DejaVuSans-105"/>
     <path d="M 31 75.875 
Q 24.46875 64.65625 21.28125 53.65625 
Q 18.109375 42.671875 18.109375 31.390625 
Q 18.109375 20.125 21.3125 9.0625 
Q 24.515625 -2 31 -13.1875 
L 23.1875 -13.1875 
Q 15.875 -1.703125 12.234375 9.375 
Q 8.59375 20.453125 8.59375 31.390625 
Q 8.59375 42.28125 12.203125 53.3125 
Q 15.828125 64.359375 23.1875 75.875 
z
" id="DejaVuSans-40"/>
     <path d="M 10.59375 45.40625 
L 73.1875 45.40625 
L 73.1875 37.203125 
L 10.59375 37.203125 
z
M 10.59375 25.484375 
L 73.1875 25.484375 
L 73.1875 17.1875 
L 10.59375 17.1875 
z
" id="DejaVuSans-61"/>
     <path d="M 8.015625 75.875 
L 15.828125 75.875 
Q 23.140625 64.359375 26.78125 53.3125 
Q 30.421875 42.28125 30.421875 31.390625 
Q 30.421875 20.453125 26.78125 9.375 
Q 23.140625 -1.703125 15.828125 -13.1875 
L 8.015625 -13.1875 
Q 14.5 -2 17.703125 9.0625 
Q 20.90625 20.125 20.90625 31.390625 
Q 20.90625 42.671875 17.703125 53.65625 
Q 14.5 64.65625 8.015625 75.875 
z
" id="DejaVuSans-41"/>
    </defs>
    <g transform="translate(152.830625 16.318125)scale(0.12 -0.12)">
     <use xlink:href="#DejaVuSans-73"/>
     <use x="29.492188" xlink:href="#DejaVuSans-110"/>
     <use x="92.871094" xlink:href="#DejaVuSans-102"/>
     <use x="128.076172" xlink:href="#DejaVuSans-101"/>
     <use x="189.599609" xlink:href="#DejaVuSans-114"/>
     <use x="230.681641" xlink:href="#DejaVuSans-101"/>
     <use x="292.205078" xlink:href="#DejaVuSans-110"/>
     <use x="355.583984" xlink:href="#DejaVuSans-99"/>
     <use x="410.564453" xlink:href="#DejaVuSans-101"/>
     <use x="472.087891" xlink:href="#DejaVuSans-32"/>
     <use x="503.875" xlink:href="#DejaVuSans-109"/>
     <use x="601.287109" xlink:href="#DejaVuSans-101"/>
     <use x="662.810547" xlink:href="#DejaVuSans-116"/>
     <use x="702.019531" xlink:href="#DejaVuSans-104"/>
     <use x="765.398438" xlink:href="#DejaVuSans-111"/>
     <use x="826.580078" xlink:href="#DejaVuSans-100"/>
     <use x="890.056641" xlink:href="#DejaVuSans-32"/>
     <use x="921.84375" xlink:href="#DejaVuSans-111"/>
     <use x="983.025391" xlink:href="#DejaVuSans-118"/>
     <use x="1042.205078" xlink:href="#DejaVuSans-101"/>
     <use x="1103.728516" xlink:href="#DejaVuSans-114"/>
     <use x="1144.841797" xlink:href="#DejaVuSans-32"/>
     <use x="1176.628906" xlink:href="#DejaVuSans-116"/>
     <use x="1215.837891" xlink:href="#DejaVuSans-105"/>
     <use x="1243.621094" xlink:href="#DejaVuSans-109"/>
     <use x="1341.033203" xlink:href="#DejaVuSans-101"/>
     <use x="1402.556641" xlink:href="#DejaVuSans-32"/>
     <use x="1434.34375" xlink:href="#DejaVuSans-40"/>
     <use x="1473.357422" xlink:href="#DejaVuSans-110"/>
     <use x="1536.736328" xlink:href="#DejaVuSans-61"/>
     <use x="1620.525391" xlink:href="#DejaVuSans-49"/>
     <use x="1684.148438" xlink:href="#DejaVuSans-51"/>
     <use x="1747.771484" xlink:href="#DejaVuSans-49"/>
     <use x="1811.394531" xlink:href="#DejaVuSans-55"/>
     <use x="1875.017578" xlink:href="#DejaVuSans-41"/>
    </g>
   </g>
   <g id="legend_1">
    <g id="patch_86">
     <path d="M 51.474375 74.630625 
L 230.507188 74.630625 
Q 232.507188 74.630625 232.507188 72.630625 
L 232.507188 29.318125 
Q 232.507188 27.318125 230.507188 27.318125 
L 51.474375 27.318125 
Q 49.474375 27.318125 49.474375 29.318125 
L 49.474375 72.630625 
Q 49.474375 74.630625 51.474375 74.630625 
z
" style="fill:#ffffff;opacity:0.8;stroke:#cccccc;stroke-linejoin:miter;"/>
    </g>
    <g id="patch_87">
     <path d="M 53.474375 38.916562 
L 73.474375 38.916562 
L 73.474375 31.916562 
L 53.474375 31.916562 
z
" style="fill:#1f77b4;opacity:0.3;"/>
    </g>
    <g id="text_19">
     <!-- Parsimony (n=1000) -->
     <defs>
      <path d="M 19.671875 64.796875 
L 19.671875 37.40625 
L 32.078125 37.40625 
Q 38.96875 37.40625 42.71875 40.96875 
Q 46.484375 44.53125 46.484375 51.125 
Q 46.484375 57.671875 42.71875 61.234375 
Q 38.96875 64.796875 32.078125 64.796875 
z
M 9.8125 72.90625 
L 32.078125 72.90625 
Q 44.34375 72.90625 50.609375 67.359375 
Q 56.890625 61.8125 56.890625 51.125 
Q 56.890625 40.328125 50.609375 34.8125 
Q 44.34375 29.296875 32.078125 29.296875 
L 19.671875 29.296875 
L 19.671875 0 
L 9.8125 0 
z
" id="DejaVuSans-80"/>
      <path d="M 44.28125 53.078125 
L 44.28125 44.578125 
Q 40.484375 46.53125 36.375 47.5 
Q 32.28125 48.484375 27.875 48.484375 
Q 21.1875 48.484375 17.84375 46.4375 
Q 14.5 44.390625 14.5 40.28125 
Q 14.5 37.15625 16.890625 35.375 
Q 19.28125 33.59375 26.515625 31.984375 
L 29.59375 31.296875 
Q 39.15625 29.25 43.1875 25.515625 
Q 47.21875 21.78125 47.21875 15.09375 
Q 47.21875 7.46875 41.1875 3.015625 
Q 35.15625 -1.421875 24.609375 -1.421875 
Q 20.21875 -1.421875 15.453125 -0.5625 
Q 10.6875 0.296875 5.421875 2 
L 5.421875 11.28125 
Q 10.40625 8.6875 15.234375 7.390625 
Q 20.0625 6.109375 24.8125 6.109375 
Q 31.15625 6.109375 34.5625 8.28125 
Q 37.984375 10.453125 37.984375 14.40625 
Q 37.984375 18.0625 35.515625 20.015625 
Q 33.0625 21.96875 24.703125 23.78125 
L 21.578125 24.515625 
Q 13.234375 26.265625 9.515625 29.90625 
Q 5.8125 33.546875 5.8125 39.890625 
Q 5.8125 47.609375 11.28125 51.796875 
Q 16.75 56 26.8125 56 
Q 31.78125 56 36.171875 55.265625 
Q 40.578125 54.546875 44.28125 53.078125 
z
" id="DejaVuSans-115"/>
      <path d="M 32.171875 -5.078125 
Q 28.375 -14.84375 24.75 -17.8125 
Q 21.140625 -20.796875 15.09375 -20.796875 
L 7.90625 -20.796875 
L 7.90625 -13.28125 
L 13.1875 -13.28125 
Q 16.890625 -13.28125 18.9375 -11.515625 
Q 21 -9.765625 23.484375 -3.21875 
L 25.09375 0.875 
L 2.984375 54.6875 
L 12.5 54.6875 
L 29.59375 11.921875 
L 46.6875 54.6875 
L 56.203125 54.6875 
z
" id="DejaVuSans-121"/>
     </defs>
     <g transform="translate(81.474375 38.916562)scale(0.1 -0.1)">
      <use xlink:href="#DejaVuSans-80"/>
      <use x="60.240234" xlink:href="#DejaVuSans-97"/>
      <use x="121.519531" xlink:href="#DejaVuSans-114"/>
      <use x="162.632812" xlink:href="#DejaVuSans-115"/>
      <use x="214.732422" xlink:href="#DejaVuSans-105"/>
      <use x="242.515625" xlink:href="#DejaVuSans-109"/>
      <use x="339.927734" xlink:href="#DejaVuSans-111"/>
      <use x="401.109375" xlink:href="#DejaVuSans-110"/>
      <use x="464.488281" xlink:href="#DejaVuSans-121"/>
      <use x="523.667969" xlink:href="#DejaVuSans-32"/>
      <use x="555.455078" xlink:href="#DejaVuSans-40"/>
      <use x="594.46875" xlink:href="#DejaVuSans-110"/>
      <use x="657.847656" xlink:href="#DejaVuSans-61"/>
      <use x="741.636719" xlink:href="#DejaVuSans-49"/>
      <use x="805.259766" xlink:href="#DejaVuSans-48"/>
      <use x="868.882812" xlink:href="#DejaVuSans-48"/>
      <use x="932.505859" xlink:href="#DejaVuSans-48"/>
      <use x="996.128906" xlink:href="#DejaVuSans-41"/>
     </g>
    </g>
    <g id="patch_88">
     <path d="M 53.474375 53.594687 
L 73.474375 53.594687 
L 73.474375 46.594687 
L 53.474375 46.594687 
z
" style="fill:#ff7f0e;opacity:0.3;"/>
    </g>
    <g id="text_20">
     <!-- Maximum_likelihood (n=450) -->
     <defs>
      <path d="M 9.8125 72.90625 
L 24.515625 72.90625 
L 43.109375 23.296875 
L 61.8125 72.90625 
L 76.515625 72.90625 
L 76.515625 0 
L 66.890625 0 
L 66.890625 64.015625 
L 48.09375 14.015625 
L 38.1875 14.015625 
L 19.390625 64.015625 
L 19.390625 0 
L 9.8125 0 
z
" id="DejaVuSans-77"/>
      <path d="M 54.890625 54.6875 
L 35.109375 28.078125 
L 55.90625 0 
L 45.3125 0 
L 29.390625 21.484375 
L 13.484375 0 
L 2.875 0 
L 24.125 28.609375 
L 4.6875 54.6875 
L 15.28125 54.6875 
L 29.78125 35.203125 
L 44.28125 54.6875 
z
" id="DejaVuSans-120"/>
      <path d="M 50.984375 -16.609375 
L 50.984375 -23.578125 
L -0.984375 -23.578125 
L -0.984375 -16.609375 
z
" id="DejaVuSans-95"/>
      <path d="M 9.421875 75.984375 
L 18.40625 75.984375 
L 18.40625 0 
L 9.421875 0 
z
" id="DejaVuSans-108"/>
      <path d="M 9.078125 75.984375 
L 18.109375 75.984375 
L 18.109375 31.109375 
L 44.921875 54.6875 
L 56.390625 54.6875 
L 27.390625 29.109375 
L 57.625 0 
L 45.90625 0 
L 18.109375 26.703125 
L 18.109375 0 
L 9.078125 0 
z
" id="DejaVuSans-107"/>
     </defs>
     <g transform="translate(81.474375 53.594687)scale(0.1 -0.1)">
      <use xlink:href="#DejaVuSans-77"/>
      <use x="86.279297" xlink:href="#DejaVuSans-97"/>
      <use x="147.558594" xlink:href="#DejaVuSans-120"/>
      <use x="206.738281" xlink:href="#DejaVuSans-105"/>
      <use x="234.521484" xlink:href="#DejaVuSans-109"/>
      <use x="331.933594" xlink:href="#DejaVuSans-117"/>
      <use x="395.3125" xlink:href="#DejaVuSans-109"/>
      <use x="492.724609" xlink:href="#DejaVuSans-95"/>
      <use x="542.724609" xlink:href="#DejaVuSans-108"/>
      <use x="570.507812" xlink:href="#DejaVuSans-105"/>
      <use x="598.291016" xlink:href="#DejaVuSans-107"/>
      <use x="656.154297" xlink:href="#DejaVuSans-101"/>
      <use x="717.677734" xlink:href="#DejaVuSans-108"/>
      <use x="745.460938" xlink:href="#DejaVuSans-105"/>
      <use x="773.244141" xlink:href="#DejaVuSans-104"/>
      <use x="836.623047" xlink:href="#DejaVuSans-111"/>
      <use x="897.804688" xlink:href="#DejaVuSans-111"/>
      <use x="958.986328" xlink:href="#DejaVuSans-100"/>
      <use x="1022.462891" xlink:href="#DejaVuSans-32"/>
      <use x="1054.25" xlink:href="#DejaVuSans-40"/>
      <use x="1093.263672" xlink:href="#DejaVuSans-110"/>
      <use x="1156.642578" xlink:href="#DejaVuSans-61"/>
      <use x="1240.431641" xlink:href="#DejaVuSans-52"/>
      <use x="1304.054688" xlink:href="#DejaVuSans-53"/>
      <use x="1367.677734" xlink:href="#DejaVuSans-48"/>
      <use x="1431.300781" xlink:href="#DejaVuSans-41"/>
     </g>
    </g>
    <g id="patch_89">
     <path d="M 53.474375 68.550937 
L 73.474375 68.550937 
L 73.474375 61.550937 
L 53.474375 61.550937 
z
" style="fill:#2ca02c;opacity:0.3;"/>
    </g>
    <g id="text_21">
     <!-- Bayesian (n=721) -->
     <defs>
      <path d="M 19.671875 34.8125 
L 19.671875 8.109375 
L 35.5 8.109375 
Q 43.453125 8.109375 47.28125 11.40625 
Q 51.125 14.703125 51.125 21.484375 
Q 51.125 28.328125 47.28125 31.5625 
Q 43.453125 34.8125 35.5 34.8125 
z
M 19.671875 64.796875 
L 19.671875 42.828125 
L 34.28125 42.828125 
Q 41.5 42.828125 45.03125 45.53125 
Q 48.578125 48.25 48.578125 53.8125 
Q 48.578125 59.328125 45.03125 62.0625 
Q 41.5 64.796875 34.28125 64.796875 
z
M 9.8125 72.90625 
L 35.015625 72.90625 
Q 46.296875 72.90625 52.390625 68.21875 
Q 58.5 63.53125 58.5 54.890625 
Q 58.5 48.1875 55.375 44.234375 
Q 52.25 40.28125 46.1875 39.3125 
Q 53.46875 37.75 57.5 32.78125 
Q 61.53125 27.828125 61.53125 20.40625 
Q 61.53125 10.640625 54.890625 5.3125 
Q 48.25 0 35.984375 0 
L 9.8125 0 
z
" id="DejaVuSans-66"/>
     </defs>
     <g transform="translate(81.474375 68.550937)scale(0.1 -0.1)">
      <use xlink:href="#DejaVuSans-66"/>
      <use x="68.603516" xlink:href="#DejaVuSans-97"/>
      <use x="129.882812" xlink:href="#DejaVuSans-121"/>
      <use x="189.0625" xlink:href="#DejaVuSans-101"/>
      <use x="250.585938" xlink:href="#DejaVuSans-115"/>
      <use x="302.685547" xlink:href="#DejaVuSans-105"/>
      <use x="330.46875" xlink:href="#DejaVuSans-97"/>
      <use x="391.748047" xlink:href="#DejaVuSans-110"/>
      <use x="455.126953" xlink:href="#DejaVuSans-32"/>
      <use x="486.914062" xlink:href="#DejaVuSans-40"/>
      <use x="525.927734" xlink:href="#DejaVuSans-110"/>
      <use x="589.306641" xlink:href="#DejaVuSans-61"/>
      <use x="673.095703" xlink:href="#DejaVuSans-55"/>
      <use x="736.71875" xlink:href="#DejaVuSans-50"/>
      <use x="800.341797" xlink:href="#DejaVuSans-49"/>
      <use x="863.964844" xlink:href="#DejaVuSans-41"/>
     </g>
    </g>
   </g>
  </g>
 </g>
 <defs>
  <clipPath id="p6f522c762e">
   <rect height="326.16" width="446.4" x="44.474375" y="22.318125"/>
  </clipPath>
 </defs>
</svg>
